<mxfile host="app.diagrams.net" agent="Mozilla/5.0 (Macintosh; Intel Mac OS X 10_15_7) AppleWebKit/537.36 (KHTML, like Gecko) Chrome/120.0.0.0 Whale/3.24.223.18 Safari/537.36" version="24.7.8">
  <diagram name="페이지-1" id="V4AV_RmFJt2NX07-JDYr">
    <mxGraphModel dx="552" dy="1049" grid="1" gridSize="10" guides="1" tooltips="1" connect="1" arrows="1" fold="1" page="1" pageScale="1" pageWidth="1169" pageHeight="827" math="0" shadow="0">
      <root>
        <mxCell id="0" />
        <mxCell id="1" parent="0" />
        <mxCell id="9iJV0XE2zEEoffiEE522-6" style="edgeStyle=orthogonalEdgeStyle;rounded=0;orthogonalLoop=1;jettySize=auto;html=1;entryX=0;entryY=0.5;entryDx=0;entryDy=0;strokeColor=#006600;" parent="1" source="9iJV0XE2zEEoffiEE522-1" target="9iJV0XE2zEEoffiEE522-2" edge="1">
          <mxGeometry relative="1" as="geometry" />
        </mxCell>
        <mxCell id="9iJV0XE2zEEoffiEE522-1" value="&lt;div&gt;&lt;font&gt;stream&lt;/font&gt;&lt;/div&gt;" style="rounded=1;whiteSpace=wrap;html=1;strokeColor=#006600;fontColor=#006600;" parent="1" vertex="1">
          <mxGeometry x="80" y="160" width="120" height="40" as="geometry" />
        </mxCell>
        <mxCell id="9iJV0XE2zEEoffiEE522-7" style="edgeStyle=orthogonalEdgeStyle;rounded=0;orthogonalLoop=1;jettySize=auto;html=1;entryX=0;entryY=0.5;entryDx=0;entryDy=0;strokeColor=#000000;" parent="1" source="9iJV0XE2zEEoffiEE522-2" target="9iJV0XE2zEEoffiEE522-3" edge="1">
          <mxGeometry relative="1" as="geometry" />
        </mxCell>
        <mxCell id="9iJV0XE2zEEoffiEE522-2" value="join" style="ellipse;whiteSpace=wrap;html=1;strokeColor=#000000;" parent="1" vertex="1">
          <mxGeometry x="320" y="155" width="80" height="50" as="geometry" />
        </mxCell>
        <mxCell id="9iJV0XE2zEEoffiEE522-3" value="&lt;font color=&quot;#994c00&quot;&gt;Output Stream&lt;/font&gt;&lt;div&gt;&lt;font color=&quot;#994c00&quot;&gt;(versioned)&lt;/font&gt;&lt;/div&gt;" style="rounded=1;whiteSpace=wrap;html=1;strokeColor=#994C00;" parent="1" vertex="1">
          <mxGeometry x="520" y="160" width="120" height="40" as="geometry" />
        </mxCell>
        <mxCell id="-941ZL6t93uc5syi7psa-3" style="edgeStyle=orthogonalEdgeStyle;rounded=0;orthogonalLoop=1;jettySize=auto;html=1;entryX=0;entryY=0.5;entryDx=0;entryDy=0;strokeColor=#4747B3;" edge="1" parent="1" source="mLQIbyA-VbelrVUgXXlT-1" target="-941ZL6t93uc5syi7psa-1">
          <mxGeometry relative="1" as="geometry" />
        </mxCell>
        <mxCell id="mLQIbyA-VbelrVUgXXlT-1" value="&lt;div&gt;&lt;font color=&quot;#4747b3&quot;&gt;table&lt;/font&gt;&lt;/div&gt;" style="rounded=1;whiteSpace=wrap;html=1;strokeColor=#4747B3;fontColor=#006600;" parent="1" vertex="1">
          <mxGeometry x="80" y="225" width="120" height="40" as="geometry" />
        </mxCell>
        <mxCell id="mLQIbyA-VbelrVUgXXlT-2" value="" style="shape=cylinder3;whiteSpace=wrap;html=1;boundedLbl=1;backgroundOutline=1;size=15;strokeColor=#4747B3;" parent="1" vertex="1">
          <mxGeometry x="180" y="245" width="80" height="60" as="geometry" />
        </mxCell>
        <mxCell id="mLQIbyA-VbelrVUgXXlT-3" value="versioned" style="text;html=1;align=center;verticalAlign=middle;whiteSpace=wrap;rounded=0;fontColor=#994C00;" parent="1" vertex="1">
          <mxGeometry x="190" y="275" width="60" height="30" as="geometry" />
        </mxCell>
        <mxCell id="-941ZL6t93uc5syi7psa-1" value="processor" style="ellipse;whiteSpace=wrap;html=1;strokeColor=#000000;" vertex="1" parent="1">
          <mxGeometry x="320" y="220" width="80" height="50" as="geometry" />
        </mxCell>
        <mxCell id="-941ZL6t93uc5syi7psa-7" value="" style="endArrow=classic;html=1;rounded=0;entryX=0.5;entryY=1;entryDx=0;entryDy=0;exitX=0.5;exitY=0;exitDx=0;exitDy=0;" edge="1" parent="1" source="-941ZL6t93uc5syi7psa-1" target="9iJV0XE2zEEoffiEE522-2">
          <mxGeometry width="50" height="50" relative="1" as="geometry">
            <mxPoint x="335" y="250" as="sourcePoint" />
            <mxPoint x="385" y="200" as="targetPoint" />
          </mxGeometry>
        </mxCell>
        <mxCell id="-941ZL6t93uc5syi7psa-8" style="edgeStyle=orthogonalEdgeStyle;rounded=0;orthogonalLoop=1;jettySize=auto;html=1;entryX=0;entryY=0.5;entryDx=0;entryDy=0;strokeColor=#006600;" edge="1" parent="1" source="-941ZL6t93uc5syi7psa-9" target="-941ZL6t93uc5syi7psa-11">
          <mxGeometry relative="1" as="geometry" />
        </mxCell>
        <mxCell id="-941ZL6t93uc5syi7psa-9" value="&lt;div&gt;&lt;font&gt;stream&lt;/font&gt;&lt;/div&gt;" style="rounded=1;whiteSpace=wrap;html=1;strokeColor=#006600;fontColor=#006600;" vertex="1" parent="1">
          <mxGeometry x="80" y="325" width="120" height="40" as="geometry" />
        </mxCell>
        <mxCell id="-941ZL6t93uc5syi7psa-10" style="edgeStyle=orthogonalEdgeStyle;rounded=0;orthogonalLoop=1;jettySize=auto;html=1;entryX=0;entryY=0.5;entryDx=0;entryDy=0;strokeColor=#000000;" edge="1" parent="1" source="-941ZL6t93uc5syi7psa-11" target="-941ZL6t93uc5syi7psa-12">
          <mxGeometry relative="1" as="geometry" />
        </mxCell>
        <mxCell id="-941ZL6t93uc5syi7psa-11" value="join" style="ellipse;whiteSpace=wrap;html=1;strokeColor=#000000;" vertex="1" parent="1">
          <mxGeometry x="320" y="320" width="80" height="50" as="geometry" />
        </mxCell>
        <mxCell id="-941ZL6t93uc5syi7psa-12" value="Output Stream&lt;div&gt;(un-versioned)&lt;/div&gt;" style="rounded=1;whiteSpace=wrap;html=1;strokeColor=#000000;" vertex="1" parent="1">
          <mxGeometry x="520" y="325" width="120" height="40" as="geometry" />
        </mxCell>
        <mxCell id="-941ZL6t93uc5syi7psa-13" style="edgeStyle=orthogonalEdgeStyle;rounded=0;orthogonalLoop=1;jettySize=auto;html=1;entryX=0;entryY=0.5;entryDx=0;entryDy=0;strokeColor=#4747B3;" edge="1" parent="1" source="-941ZL6t93uc5syi7psa-14" target="-941ZL6t93uc5syi7psa-17">
          <mxGeometry relative="1" as="geometry" />
        </mxCell>
        <mxCell id="-941ZL6t93uc5syi7psa-14" value="&lt;div&gt;&lt;font color=&quot;#4747b3&quot;&gt;table&lt;/font&gt;&lt;/div&gt;" style="rounded=1;whiteSpace=wrap;html=1;strokeColor=#4747B3;fontColor=#006600;" vertex="1" parent="1">
          <mxGeometry x="80" y="390" width="120" height="40" as="geometry" />
        </mxCell>
        <mxCell id="-941ZL6t93uc5syi7psa-15" value="" style="shape=cylinder3;whiteSpace=wrap;html=1;boundedLbl=1;backgroundOutline=1;size=15;strokeColor=#4747B3;" vertex="1" parent="1">
          <mxGeometry x="180" y="410" width="80" height="60" as="geometry" />
        </mxCell>
        <mxCell id="-941ZL6t93uc5syi7psa-16" value="&lt;font color=&quot;#000000&quot;&gt;un-versioned&lt;/font&gt;" style="text;html=1;align=center;verticalAlign=middle;whiteSpace=wrap;rounded=0;fontColor=#994C00;" vertex="1" parent="1">
          <mxGeometry x="182.5" y="440" width="75" height="30" as="geometry" />
        </mxCell>
        <mxCell id="-941ZL6t93uc5syi7psa-17" value="processor" style="ellipse;whiteSpace=wrap;html=1;strokeColor=#000000;" vertex="1" parent="1">
          <mxGeometry x="320" y="385" width="80" height="50" as="geometry" />
        </mxCell>
        <mxCell id="-941ZL6t93uc5syi7psa-18" value="" style="endArrow=classic;html=1;rounded=0;entryX=0.5;entryY=1;entryDx=0;entryDy=0;exitX=0.5;exitY=0;exitDx=0;exitDy=0;" edge="1" parent="1" source="-941ZL6t93uc5syi7psa-17" target="-941ZL6t93uc5syi7psa-11">
          <mxGeometry width="50" height="50" relative="1" as="geometry">
            <mxPoint x="335" y="415" as="sourcePoint" />
            <mxPoint x="385" y="365" as="targetPoint" />
          </mxGeometry>
        </mxCell>
        <mxCell id="-941ZL6t93uc5syi7psa-20" style="edgeStyle=orthogonalEdgeStyle;rounded=0;orthogonalLoop=1;jettySize=auto;html=1;entryX=0;entryY=0.5;entryDx=0;entryDy=0;strokeColor=#006600;" edge="1" parent="1" source="-941ZL6t93uc5syi7psa-21" target="-941ZL6t93uc5syi7psa-23">
          <mxGeometry relative="1" as="geometry" />
        </mxCell>
        <mxCell id="-941ZL6t93uc5syi7psa-21" value="&lt;div&gt;&lt;font&gt;stream&lt;/font&gt;&lt;/div&gt;" style="rounded=1;whiteSpace=wrap;html=1;strokeColor=#006600;fontColor=#006600;" vertex="1" parent="1">
          <mxGeometry x="80" y="485" width="120" height="40" as="geometry" />
        </mxCell>
        <mxCell id="-941ZL6t93uc5syi7psa-22" style="edgeStyle=orthogonalEdgeStyle;rounded=0;orthogonalLoop=1;jettySize=auto;html=1;entryX=0;entryY=0.5;entryDx=0;entryDy=0;strokeColor=#000000;" edge="1" parent="1" source="-941ZL6t93uc5syi7psa-23" target="-941ZL6t93uc5syi7psa-24">
          <mxGeometry relative="1" as="geometry" />
        </mxCell>
        <mxCell id="-941ZL6t93uc5syi7psa-23" value="join" style="ellipse;whiteSpace=wrap;html=1;strokeColor=#000000;" vertex="1" parent="1">
          <mxGeometry x="320" y="480" width="80" height="50" as="geometry" />
        </mxCell>
        <mxCell id="-941ZL6t93uc5syi7psa-24" value="Output Stream&lt;div&gt;(un-versioned)&lt;/div&gt;" style="rounded=1;whiteSpace=wrap;html=1;strokeColor=#000000;" vertex="1" parent="1">
          <mxGeometry x="520" y="485" width="120" height="40" as="geometry" />
        </mxCell>
        <mxCell id="-941ZL6t93uc5syi7psa-25" style="edgeStyle=orthogonalEdgeStyle;rounded=0;orthogonalLoop=1;jettySize=auto;html=1;entryX=0;entryY=0.5;entryDx=0;entryDy=0;strokeColor=#4747B3;" edge="1" parent="1" source="-941ZL6t93uc5syi7psa-26" target="-941ZL6t93uc5syi7psa-29">
          <mxGeometry relative="1" as="geometry" />
        </mxCell>
        <mxCell id="-941ZL6t93uc5syi7psa-26" value="&lt;div&gt;&lt;font color=&quot;#4747b3&quot;&gt;table&lt;/font&gt;&lt;/div&gt;" style="rounded=1;whiteSpace=wrap;html=1;strokeColor=#4747B3;fontColor=#006600;" vertex="1" parent="1">
          <mxGeometry x="80" y="550" width="120" height="40" as="geometry" />
        </mxCell>
        <mxCell id="-941ZL6t93uc5syi7psa-27" value="" style="shape=cylinder3;whiteSpace=wrap;html=1;boundedLbl=1;backgroundOutline=1;size=15;strokeColor=#4747B3;" vertex="1" parent="1">
          <mxGeometry x="180" y="570" width="80" height="60" as="geometry" />
        </mxCell>
        <mxCell id="-941ZL6t93uc5syi7psa-29" value="processor" style="ellipse;whiteSpace=wrap;html=1;strokeColor=#000000;" vertex="1" parent="1">
          <mxGeometry x="320" y="545" width="80" height="50" as="geometry" />
        </mxCell>
        <mxCell id="-941ZL6t93uc5syi7psa-30" value="" style="endArrow=classic;html=1;rounded=0;entryX=0.5;entryY=1;entryDx=0;entryDy=0;exitX=0.5;exitY=0;exitDx=0;exitDy=0;" edge="1" parent="1" source="-941ZL6t93uc5syi7psa-29" target="-941ZL6t93uc5syi7psa-23">
          <mxGeometry width="50" height="50" relative="1" as="geometry">
            <mxPoint x="335" y="575" as="sourcePoint" />
            <mxPoint x="385" y="525" as="targetPoint" />
          </mxGeometry>
        </mxCell>
      </root>
    </mxGraphModel>
  </diagram>
</mxfile>
